<svg version="1.1" id="Layer_1" xmlns="http://www.w3.org/2000/svg" xmlns:xlink="http://www.w3.org/1999/xlink" x="0px" y="0px"
  width="370px" height="370px" viewBox="0 0 370 370" enable-background="new 0 0 370 370" xml:space="preserve">

<g>
	<path fill="none" stroke="#FFFFFF" stroke-width="4" stroke-miterlimit="10" d="M277.9,225.8c-11,7.7-33.1,9.6-45.7,0.2c-2.2-1.6-4.1-3.6-6-5.6c-1.4-1.6-0.7-1.6,1.1-2.9
	c75.7-53.8,62.4-110.8,63.7-115c0-3.2-2.2-15.8-4.7-18.3c-1.3-1.4-2.3-1.8-3.8-0.2c-5.3,5.5-11.1,10.7-16.2,16.3
	c-9.8,10.8-21.3,19.8-34.2,26.6c-0.4-28.1-12-44.3-12.4-46.6c-1.1-2.5-7.3-11.7-10.1-12.9c-1.5-0.6-2.3-0.7-2.9,1.1
	c-2,6.2-4.3,12.2-6.1,18.4c-3.4,12.3-9,23.7-16.5,33.7c-6.3,8.4-14,14.5-22.2,20.9c-5.5,4.3-8.7,10.3-9.9,16.4
	c-4.4-5.5-8.9-11.2-14.7-15.3c-6.1-4.3-13.5-6.7-20.8-6.8c-9.9-0.1-20.2,3.3-27.3,10.4c-3.1,3.1-5.8,7-9.4,9.6
	c-2.7,2-0.2,1.4,0.8,1.6c2,0.4,3.9,0.9,5.7,1.8c7.3,3.5,11.9,9.5,15.9,16.2c5.7,9.3,8.4,20.2,13,30c1.5,3.3,3.3,6.5,5.2,9.5
	c12,18.3,36.1,28.1,56.1,34.7c8.6,2.8,17.7,4,26.3,6.7c18,5.8,27.1,20,24.8,38.6c-0.5,4,1,7.3,3.9,7.7
	C291.2,309.5,303.4,207.9,277.9,225.8z"/>
</g>
</svg>
