<svg version="1.1" id="Layer_1" xmlns="http://www.w3.org/2000/svg" xmlns:xlink="http://www.w3.org/1999/xlink" x="0px" y="0px"
  width="370px" height="370px" viewBox="0 0 370 370" enable-background="new 0 0 370 370" xml:space="preserve">

<g>
	<path fill="none" stroke="#FFFFFF" stroke-width="4" stroke-miterlimit="10" d="M303,158c0-24.2-20.3-43.9-45.4-43.9c-5.8,0-11.3,1.1-16.3,2.9c-7.7-14-22.7-23.5-39.8-23.5
	c-13.7,0-25.9,6.1-34.2,15.6c-7.3-5.5-16.4-8.8-26.2-8.8c-24,0-43.5,19.5-43.5,43.5c0,1.9,0.1,3.8,0.4,5.7
	c-16.8,5.7-28.8,20.6-28.8,38s12,32.3,28.9,38c-15.3,33-47.4,47.7-21,43.4c18.7-3.1,33.1-7.6,44.1-12.8c8.1,8.3,19.6,13.6,32.3,13.6
	c10,0,19.2-3.2,26.7-8.6c8.1,9.4,20.4,15.5,34.1,15.5c20.8,0,38.2-13.8,43-32.4c24.9-0.8,44.8-19.3,44.8-42.1
	c0-7.5-2.1-14.5-5.9-20.6C300.4,174.6,303,166.6,303,158z"/>
</g>
</svg>
