<svg version="1.1" id="Layer_1" xmlns="http://www.w3.org/2000/svg" xmlns:xlink="http://www.w3.org/1999/xlink" x="0px" y="0px"
  width="370px" height="370px" viewBox="0 0 370 370" enable-background="new 0 0 370 370" xml:space="preserve">

<g>
	<polygon fill="none" stroke="#FFFFFF" stroke-width="4" stroke-miterlimit="10"  points="212.2,69 185.7,96.4 159.2,69 147.2,105.1 111.5,92 116.4,129.8 78.5,133.4 99.3,165.3 66.7,185
	99.3,204.7 78.5,236.6 116.4,240.2 111.5,278 147.2,264.9 159.2,301.1 185.7,273.7 212.2,301.1 224.2,264.9 260,278.1 255.1,240.3
	293,236.7 272.2,204.8 304.8,185.1 272.2,165.4 293,133.5 255.1,129.9 260,92.1 224.2,105.1 212.2,69 "/>
</g>
</svg>