<svg version="1.1" id="Layer_1" xmlns="http://www.w3.org/2000/svg" xmlns:xlink="http://www.w3.org/1999/xlink" x="0px" y="0px"
  width="370px" height="370px" viewBox="0 0 370 370" enable-background="new 0 0 370 370" xml:space="preserve">

<g>
	<path fill="none" stroke="#FFFFFF" stroke-width="4" stroke-miterlimit="10" d="M268.1,133.8c-18.8-16.8-46.1-16.6-67.6-5.1c-2.9,1.6-6,3.8-9.2,5.3c-0.3-1.3-0.7-2.7-1.2-4.3
	c-1.2-3.9,0.4-5.5,4.4-6.2c15.3-2.8,29.2-11.1,38.3-23.7c2.4-3.3,4.4-6.9,6.1-10.6c2.5-5.6,3.5-11.4,4.7-17.4c1.5-7.4,1.4-5.7-5-5.1
	c-27.6,2.6-44.4,18.7-51.7,45.1c-0.2,0.9-0.5,1.7-0.8,2.6c-0.1,0.2-0.4,0.4-0.6,0.7c-1.4-1-2-2.4-2.8-3.7
	c-5.1-8.5-11.6-15.7-19.3-22c-2.5-2-4.3-2.1-6.2,0.7c-2.1,2.9-4.5,5.5-6.7,8.3c-1.6,1.9-1.3,3.1,1.2,3.8c13.6,4,23.5,18.9,29.7,32.7
	c-4.2-1.3-8.2-4.1-11.8-6c-21.6-11.5-48.8-11.6-67.6,5.1c-33.6,30.1-26.2,81.9-8.3,118.1c12.4,25.1,34.2,51.3,65.1,52.1
	c8.6,0.2,15.8-6.5,24.2-7c9.8-0.6,18.3,7.3,28.4,7c30.9-0.8,52.7-27,65.1-52.1C294.3,215.7,301.8,163.8,268.1,133.8z"/>
</g>
</svg>
