<svg version="1.1" id="Layer_1" xmlns="http://www.w3.org/2000/svg" xmlns:xlink="http://www.w3.org/1999/xlink" x="0px" y="0px"
  width="370px" height="370px" viewBox="0 0 370 370" enable-background="new 0 0 370 370" xml:space="preserve">

<g>
	<path fill="none" stroke="#FFFFFF" stroke-width="4" stroke-miterlimit="10" d="M272.5,160c0-0.4,0-0.7,0-1.1c-0.2-6.3-1-12.7-2.5-18.8c-11.3-48.5-59.3-86.3-109.6-70.7
	c-49.4,15.3-70.4,72-59.3,119.4c8.5,36.4,32.1,81.7,71.7,89.6l-8.6,21.2c-0.4,2.3,1.8,5.4,4.6,5.4h32.4c2.8,0,5-3.1,4.6-5.4
	l-8.7-20.9c2.8-0.7,5.6-1.8,8.3-2.9C249.5,258.4,273.4,205.2,272.5,160z"/>
</g>
</svg>
