<svg version="1.1" id="Layer_1" xmlns="http://www.w3.org/2000/svg" xmlns:xlink="http://www.w3.org/1999/xlink" x="0px" y="0px"
  width="370px" height="370px" viewBox="0 0 370 370" enable-background="new 0 0 370 370" xml:space="preserve">

<g>
	<path fill="none" stroke="#FFFFFF" stroke-width="4" stroke-miterlimit="10" d="M287,102.6c-20.1-20.1-50.1-22.7-66.9-5.8c-10.8,10.8-13.6,26.8-9,42.3c-8.1-3-16.9-4.7-26.1-4.7
	c-9.2,0-17.9,1.6-26.1,4.7c4.6-15.4,1.7-31.5-9-42.3C133,79.9,103.1,82.5,83,102.6s-22.7,50.1-5.8,66.9c10,10,24.7,13.2,39.2,9.9
	c-4,9.2-6.2,19.3-6.2,30c0,41.4,33.6,75,74.9,75s74.9-33.6,74.9-75c0-10.7-2.2-20.8-6.2-30c14.5,3.3,29.1,0.2,39.2-9.9
	C309.7,152.7,307.1,122.7,287,102.6z"/>
</g>
</svg>
