<svg version="1.1" id="Layer_1" xmlns="http://www.w3.org/2000/svg" xmlns:xlink="http://www.w3.org/1999/xlink" x="0px" y="0px"
  width="370px" height="370px" viewBox="0 0 370 370" enable-background="new 0 0 370 370" xml:space="preserve">

<g>
	<path fill="none" stroke="#FFFFFF" stroke-width="4" stroke-miterlimit="10" d="M208.7,133c2.8,0,5.7,0.6,8.5,1.9c7.2,3.2,13.4,7.6,20.1,12.2l0.3,0.2c2.6,1.8,5.2,3.7,7.8,5.6
		c14,10.1,28.4,20.6,45.8,25c-11,5.8-21.3,13-30.5,21.5c-2.7,2.5-5.4,5.1-8,7.7c-9.3,9-18.9,18.4-30.8,23.4
		c-10,4.2-21.9,6.3-36.6,6.5c-14.6-0.2-26.6-2.3-36.5-6.5c-11.9-5-21.4-14.3-30.6-23.3c-2.6-2.6-5.4-5.2-8.1-7.8
		c-9.3-8.5-19.5-15.7-30.5-21.5c17.4-4.4,31.8-14.8,45.7-25c2.6-1.9,5.2-3.8,7.8-5.6l0.4-0.3c6.6-4.6,12.8-9,19.9-12.1
		c2.9-1.3,5.7-1.9,8.5-1.9c8.7,0,16.4,6.5,19.3,16.2c0.1,0.2,0.1,0.5,0.1,0.5l2.9,12.4l4.7-11.9c0.1-0.2,0.3-0.7,0.4-1.1
		C192.2,139.5,200,133,208.7,133 M208.7,129c-11,0-19.9,8.2-23.2,19.1c-0.1,0.2-0.3,0.8-0.3,0.8s-0.1-0.5-0.2-0.8
		c-3.2-10.9-12.1-19.1-23.1-19.1c-3.2,0-6.6,0.7-10.1,2.2c-7.7,3.4-14.4,8.1-21.1,12.8c-17.4,12.3-35,27.1-57.1,31
		c-2.2,0.4-4.5,0.6-7.3,0.9c0.9,0.5,1.3,0.8,1.8,1c14.7,6.3,27.7,14.8,39.2,25.4c12.4,11.4,23.8,25,39.9,31.8
		c11.8,5,25.1,6.7,38.1,6.8c13-0.2,26.3-1.8,38.1-6.8c16.1-6.8,27.6-20.4,40-31.8c11.5-10.6,24.5-19.1,39.2-25.4
		c0.5-0.2,0.9-0.5,1.8-1c-2.8-0.4-5.1-0.5-7.3-0.9c-22.1-3.9-39.7-18.7-57.1-31c-6.7-4.7-13.4-9.5-21.1-12.8
		C215.3,129.7,211.9,129,208.7,129L208.7,129z"/>
</g>
</svg>
