<svg version="1.1" id="Layer_1" xmlns="http://www.w3.org/2000/svg" xmlns:xlink="http://www.w3.org/1999/xlink" x="0px" y="0px"
  width="370px" height="370px" viewBox="0 0 370 370" enable-background="new 0 0 370 370" xml:space="preserve">

<g>
	<path fill="none" stroke="#FFFFFF" stroke-width="4" stroke-miterlimit="10" d="M293.1,211.1c-2.4-4.8-6.8-10.6-2.4-15.6c11.5-13-1.5-32.2-16.8-33.9c-15.3-1.7-30.6-1.5-45.9-1.1
	c-3.1,0.1-6.1,0.1-9.2,0.2c-1.4,0.1-1.9-0.5-2.2-1.7c-0.9-3.5-0.5-7,0.8-10.1c2.9-7.1,5.7-14.2,9.2-21c5.3-10.2,8.4-20.8,7.4-32.4
	c-0.9-10.9-4.6-19.7-14.9-25.1c-2.5-1.3-5.4-1.6-8.1-2.6c-1.8,0-3.7,0-5.5,0c-3.1,1-3.5,2.8-3.7,5.5c-0.8,11.8-2.1,23.2-6,34.5
	c-5.6,16.3-22.8,22.3-28.9,38.3c-6.5,17.4-15.2,34.9-29.2,46.2c-2.6,2.1-6.5,2.2-8.5,2c0-0.3,0-0.6,0-0.9c0-7.5-5.2-12.3-12.7-12.4
	c-9.7,0-19.6,0-29.3,0c-7.6,0-12.4,4.7-12.4,12.3c0,32.3-0.1,64.7-0.1,97c0,7.6,4.6,12.3,12.2,12.4c9.7,0.1,19.4,0.1,29,0
	c7.4-0.1,12-4.6,12.3-11.9c6.1,1.1,12.3,2.2,18.5,3.3c27.9,5,55.6,9,84.1,8.3c14-0.3,30.1-0.6,41.7-9.5c7-5.4,5.2-10.1,4.9-17.9
	c-0.2-5.4,2.3-9.8,6.4-13.2c8.6-7.1,6.8-14.3,3.1-23.6c-1.4-3.6-1-6.7,1.7-9.5C294,223.1,296.7,218.4,293.1,211.1z"/>
</g>
</svg>
