<svg version="1.1" id="Layer_1" xmlns="http://www.w3.org/2000/svg" xmlns:xlink="http://www.w3.org/1999/xlink" x="0px" y="0px"
  width="370px" height="370px" viewBox="0 0 370 370" enable-background="new 0 0 370 370" xml:space="preserve">

<g>
	<path fill="none" stroke="#FFFFFF" stroke-width="4" stroke-miterlimit="10" d="M298,181.5c-2.5-2.3-4-5-5.7-7.9c-2-3.5-3-7.3-3.3-11.4c-0.4-5.4,0.9-10.5,2-15.7c0.8-4,1.9-8,2.8-12
	c0.9-4.4,1.5-8.9,1.1-13.5c-0.5-5.8-2.5-11.1-5.7-15.9c-2.6-4-5.7-7.5-9.5-10.4c-2.4-1.9-5.1-3.5-8-4.6c-4-1.6-8.2-2.4-12.5-2.6
	c-4.5-0.2-8.9,0.4-13.2,1.2c-6.2,1.2-12.3,2.6-18.5,3.8c-4.4,0.8-8.9,1.6-13.4,1.5c-8.5-0.1-15.8-2.5-21.9-8.4
	c-2.5-2.4-4.6-3.7-6.4-7.7c-0.1,0-0.1,0-0.2,0c-1,2-2,2.6-3.1,4c-2.3,2.9-5,5.2-8.1,7.1c-3.4,2.1-7.1,3.5-11.1,4.1
	c-4,0.6-8,0.5-11.9-0.2c-4.2-0.7-8.4-1.5-12.6-2.3c-4.1-0.8-8.1-1.8-12.2-2.6c-4.7-0.9-9.5-1.6-14.3-1.4c-6.8,0.2-13.1,2.1-18.7,6
	s-9.9,8.8-13,14.7c-2.3,4.3-3.7,8.9-3.9,13.9c-0.3,5.1,0.7,10,1.8,15c1.2,5.2,2.4,10.3,3.6,15.5c1,4.8,1.1,9.6-0.3,14.4
	c-1.4,4.8-3.9,8.9-7.2,12.5c-1.9,2-4.1,3.9-6.1,5.8c-0.3,0.3-0.6,0.5-0.9,0.8c1.6,1.4,3.2,2.7,4.7,4c3.6,3.3,6.6,7,8.6,11.5
	c1.1,2.6,1.9,5.4,2.2,8.2c0.6,6.2-1,12-2.3,18c-1.1,5.2-2.4,10.3-3.2,15.6c-0.8,5.3-0.1,10.5,1.7,15.6c2,5.5,5.2,10.2,9.1,14.5
	c3.7,3.9,8,6.9,13.1,8.8c2.9,1,5.7,1.8,8.8,2c2.5,0.1,5,0.4,7.5,0.2c3.2-0.2,6.4-0.7,9.5-1.3c6.9-1.3,13.8-2.8,20.7-4.1
	c4.7-0.9,9.4-1.4,14.1-0.8c3.7,0.5,7.3,1.5,10.6,3.3c3.1,1.7,5.9,3.9,8.2,6.6c1.9,2.1,3.5,4.5,5.2,6.8c1-1.4,1.9-2.8,3-4.2
	c3-3.7,6.4-6.9,10.8-9c3.6-1.8,7.3-2.7,11.3-3c4.6-0.3,9.2,0.4,13.6,1.2c6.3,1.2,12.6,2.7,18.9,3.9c2.9,0.6,5.9,0.9,8.9,1.3
	c1.7,0.2,3.5,0.4,5.2,0.4c7.3-0.2,14.2-2,20.2-6.3c5.9-4.2,10.4-9.6,13.5-16.1c2-4.2,3.1-8.7,3.2-13.4c0.1-5-0.8-9.8-1.9-14.5
	c-1.1-5.2-2.4-10.5-3.4-15.7c-0.8-3.9-0.7-7.8,0.1-11.7c1.1-5.1,2.6-9.4,6-13.2c2.4-2.8,5.1-5.1,7.1-7.3c0-0.1,0-0.1,0-0.2
	C300.3,184.5,299.7,183.1,298,181.5z"/>
</g>
</svg>
