<svg version="1.1" id="Layer_1" xmlns="http://www.w3.org/2000/svg" xmlns:xlink="http://www.w3.org/1999/xlink" x="0px" y="0px"
  width="370px" height="370px" viewBox="0 0 370 370" enable-background="new 0 0 370 370" xml:space="preserve">

<g>
	<path fill="none" stroke="#FFFFFF" stroke-width="4" stroke-miterlimit="10" d="M184.3,254.7L113.1,298c-1.1,0.7-2.4-0.3-2.1-1.5l19.2-81.1c0.1-0.5-0.1-1.1-0.5-1.4l-63.2-54.3
	c-1-0.8-0.4-2.4,0.8-2.5l83.1-6.8c0.5,0,1-0.4,1.2-0.9l32.1-76.9c0.5-1.2,2.1-1.2,2.6,0l32.1,76.9c0.2,0.5,0.7,0.8,1.2,0.9l83.1,6.8
	c1.3,0.1,1.8,1.7,0.8,2.5L240.3,214c-0.4,0.3-0.6,0.9-0.5,1.4l19.2,81.1c0.3,1.2-1,2.2-2.1,1.5l-71.2-43.3
	C185.3,254.4,184.7,254.4,184.3,254.7z"/>
</g>
</svg>
