<svg version="1.1" id="Layer_1" xmlns="http://www.w3.org/2000/svg" xmlns:xlink="http://www.w3.org/1999/xlink" x="0px" y="0px"
  width="370px" height="370px" viewBox="0 0 370 370" enable-background="new 0 0 370 370" xml:space="preserve">

<g>
	<path fill="none" stroke="#FFFFFF" stroke-width="4" stroke-miterlimit="10" d="M301.6,171.7c-3.4-8.7-11.1-14.7-20.6-16.2c6.8-6.8,9.6-16.1,7.2-25.2c-0.9-3.6-2.7-7-5-9.9
	c-3.8-4.6-8.7-7.2-14.1-8.3c-11.4-2.4-24.7,2.2-33,10.2c-6.4,6.2-10.6,14.1-14.6,21.8c-12.3,27.7-26.4,15.9-6.5-4.9
	c5.9-6.1,12.2-12.5,16.1-20.4c5.1-10.4,5.3-24.4-0.4-34.5c-2.7-4.8-6.8-8.6-12.3-10.8c-3.5-1.4-7.3-1.9-11-1.7
	c-9.4,0.5-17.4,6-21.8,14.6c-4.4-8.6-12.4-14-21.8-14.6c-3.7-0.2-7.5,0.4-11,1.7c-5.5,2.2-9.6,6.1-12.3,10.8
	c-6,10.2-5.8,24.3-0.7,34.6c3.9,7.9,10.1,14.3,16.2,20.5c24.5,21.1,9.5,32.8-6.5,4.9c-4-7.7-8.2-15.5-14.6-21.7
	c-8.3-8-21.6-12.6-33-10.2c-5.4,1.1-10.4,3.8-14.2,8.3c-2.4,2.9-4.1,6.3-5,9.9c-2.4,9.1,0.3,18.4,7.2,25.2
	c-9.5,1.5-17.2,7.4-20.6,16.2c-1.4,3.5-2,7.2-1.7,11c0.4,5.9,2.8,11,6.5,15c7.8,8.6,21.3,12.7,32.8,11.1c9.4-1.3,17.9-5.7,26.2-9.8
	c30-16.7,32,2.4,3,8.2c-6,1-18.7,3-27.1,7.4c-10.2,5.4-18.7,16.6-20,28.2c-0.6,5.5,0.4,11,3.6,16c2,3.2,4.7,5.8,7.9,7.8
	c7.9,5.1,17.6,5.4,26.2,1c-1.5,9.5,1.7,18.6,9,24.6c2.9,2.4,6.3,4.1,9.9,5c5.8,1.5,11.3,0.7,16.4-1.5c10.6-4.8,18.7-16.3,20.7-27.7
	c1.7-9.8-0.1-19.6-1.5-29.2c-3.1-30.1,14.8-32.2,9.1,0c-0.8,4.8-3.1,19.4-1.4,29.1c2,11.4,10.1,22.9,20.7,27.7
	c5,2.3,10.6,3,16.4,1.5c3.6-0.9,7-2.7,9.9-5c7.3-6,10.6-15.1,9-24.6c8.6,4.4,18.3,4.1,26.2-1c3.1-2,5.9-4.7,7.9-7.8
	c3.2-5,4.2-10.5,3.6-16c-1.3-11.5-9.7-22.8-20-28.2c-8.5-4.5-19.2-5.1-27.3-7.5c-31.9-9.2-25.1-25.3,2.9-8.2
	c8.3,4.1,16.8,8.5,26.1,9.8c11.5,1.6,24.9-2.5,32.8-11.1c3.7-4.1,6.1-9.1,6.5-15C303.6,179,303,175.2,301.6,171.7z"/>
</g>
</svg>
