<svg version="1.1" id="Layer_1" xmlns="http://www.w3.org/2000/svg" xmlns:xlink="http://www.w3.org/1999/xlink" x="0px" y="0px"
  width="370px" height="370px" viewBox="0 0 370 370" enable-background="new 0 0 370 370" xml:space="preserve">

<g>
	<path fill="none" stroke="#FFFFFF" stroke-width="4" stroke-miterlimit="10" d="M291.8,199.9c-2.3-12.7-8-24.5-11.1-37c-4.4-17.2-0.6-33.3,5.7-49.5c1.7-4.4,4-8.6,6.2-13.2
	c-11.5-11-23-22-34.7-33.1c-15.3,11.3-32.2,15.6-50.6,13.1c-6.4-0.9-12.7-3.1-19-5c-1.6-0.5-2.5-0.8-3.4-0.9
	c-0.7,0.2-1.8,0.4-3.4,0.9c-6.3,1.9-12.5,4.1-18.9,5c-18.4,2.5-35.2-1.8-50.5-13.1c-11.6,11-23.2,22-34.7,33
	c2.2,4.6,4.5,8.8,6.2,13.2c6.3,16.2,10,32.3,5.7,49.5c-3.2,12.5-8.9,24.3-11.1,37C76,212,77.6,224.9,83,236.1
	c15.1,31.6,53.2,42.6,82.7,55.8c6.8,3,13.1,7.3,19.3,10.9c6.4-3.6,12.5-7.9,19.4-10.9c29.5-13.2,67.7-24.3,82.8-55.8
	C292.4,225,294,212.1,291.8,199.9z"/>
</g>
</svg>
