<svg version="1.1" id="Layer_1" xmlns="http://www.w3.org/2000/svg" xmlns:xlink="http://www.w3.org/1999/xlink" x="0px" y="0px"
  width="370px" height="370px" viewBox="0 0 370 370" enable-background="new 0 0 370 370" xml:space="preserve">

<g>
	<path fill="none" stroke="#FFFFFF" stroke-width="4" stroke-miterlimit="10" d="M263,105.6c0,0-44.1,62.2,41,66.1c0,0-90.1,27.1-36.7,92c0,0-47.1-39.8-70.9,24c0,0-15.8-85-62.2-15.1
	c0,0,18-76.5-68.2-48.1c0.4,0.2,91.6-33.2,5.1-89.3c0,0,64.9,32.5,60.5-43.1c0,0,40.4,67.4,71.1-9.7
	C198.1,132.2,234.5,135.5,263,105.6z"/>
</g>
</svg>
