<svg version="1.1" id="Layer_1" xmlns="http://www.w3.org/2000/svg" xmlns:xlink="http://www.w3.org/1999/xlink" x="0px" y="0px"
  width="370px" height="370px" viewBox="0 0 370 370" enable-background="new 0 0 370 370" xml:space="preserve">

<g>
	<path fill="none" stroke="#FFFFFF" stroke-width="4" stroke-miterlimit="10" d="M279.7,190.3l-89.3,111.4c0,0.1-0.1,0.1-0.2,0.2c-2.9,2.8-7.5,2.8-10.4,0c-0.1-0.1-0.1-0.1-0.2-0.2L90.3,190.3
	c-2.9-2.9-2.9-7.7,0-10.6l89.3-111.4c0-0.1,0.1-0.1,0.2-0.2c2.9-2.8,7.5-2.8,10.4,0c0.1,0.1,0.1,0.1,0.2,0.2l89.3,111.4
	C282.6,182.6,282.6,187.4,279.7,190.3z"/>
</g>
</svg>
