<svg version="1.1" id="Layer_1" xmlns="http://www.w3.org/2000/svg" xmlns:xlink="http://www.w3.org/1999/xlink" x="0px" y="0px"
  width="370px" height="370px" viewBox="0 0 370 370" enable-background="new 0 0 370 370" xml:space="preserve">

<g>
	<path fill="none" stroke="#FFFFFF" stroke-width="4" stroke-miterlimit="10" d="M300.8,102.4c-2.9-6-9.4-9.2-18.1-8c-13.7,1.8-26.9,8.3-39.2,14.1c-10.4,4.9-19.6,10.5-27.7,18.8
	c-5,5.1-9.4,10.6-13.5,16.4c-4.7-6.6-10.7-10.4-17.3-10.4c-6.5,0-12.6,3.8-17.3,10.4c-4.1-5.8-8.5-11.3-13.5-16.4
	c-8.1-8.3-17.3-14-27.7-18.8c-12.4-5.8-25.6-12.2-39.2-14.1c-8.6-1.2-15.2,2.1-18.1,8c-1.7,3.6-2.2,8.1-1.1,13.2
	c1.8,8.2,6.1,15.6,8,23.9c1.9,8.2,3.2,16.6,6.3,24.5c2.1,5.4,5.6,8.9,11.4,10.2c6.1,1.4,27.2,5.3,26.2,5.8
	c-11,5.6-29.7,15.7-27,31.5c3.2,18.6,7,39,17.6,55c7,10.6,15.8,11.7,26.8,5.5c8.3-4.8,13.7-12.5,18.6-20.5c4.2-7,7.5-14.3,10.3-21.8
	c4.9,12.1,11.4,20.6,18.6,20.6s13.7-8.5,18.6-20.6c2.9,7.5,6.2,14.8,10.3,21.8c4.8,8.1,10.2,15.8,18.6,20.5
	c11,6.3,19.8,5.1,26.8-5.5c10.7-16,14.4-36.4,17.6-55c2.7-15.8-16-25.9-27-31.5c-1-0.5,20.1-4.4,26.2-5.8c5.8-1.3,9.3-4.9,11.4-10.2
	c3.1-7.9,4.4-16.3,6.3-24.5c1.9-8.3,6.2-15.7,8-23.9C303,110.5,302.6,106,300.8,102.4z"/>
</g>
</svg>
