<svg version="1.1" id="Layer_1" xmlns="http://www.w3.org/2000/svg" xmlns:xlink="http://www.w3.org/1999/xlink" x="0px" y="0px"
  width="370px" height="370px" viewBox="0 0 370 370" enable-background="new 0 0 370 370" xml:space="preserve">

<g>
	<path fill="none" stroke="#FFFFFF" stroke-width="4" stroke-miterlimit="10" d="M292.9,103.5c-11.4-19.3-31.4-30.4-53.6-29.9c-22.3,0.6-41.7,12.9-52.3,32.9c-0.7,1.3-1.5,2.5-1.5,3.8
	c-0.7-1.3-1.3-2.6-2-3.8c-10.5-20-30.2-32.3-52.6-32.9c-22.1-0.5-42.2,10.6-53.5,29.9c-12.5,21.1-13,44.5-1.6,71.5
	c8.2,19.5,23.1,33.8,36.3,46.3c4.4,4.2,8.7,8.3,13.1,12.5c13.4,12.7,27.2,25.9,40.6,39.1c4.3,4.2,8,8.9,12,13.9
	c1.9,2.3,3.7,4.7,5.7,7l2.1,2.6l1.6-2.6c1.9-2.3,3.3-4.7,5.2-7c4-5,7.8-9.7,12-13.9c13.4-13.2,27.2-26.4,40.6-39.1
	c4.4-4.2,8.8-8.3,13.1-12.5c13.1-12.6,28.1-26.8,36.3-46.3C305.8,148,305.3,124.6,292.9,103.5z"/>
</g>
</svg>
